<?xml version="1.0" encoding="UTF-8"?>
<svg id="Layer_2" data-name="Layer 2" xmlns="http://www.w3.org/2000/svg" viewBox="0 0 203 203">
  <defs>
    <style>
      .cls-1 {
        fill: #fff;
      }

      .cls-2 {
        fill: #29abe2;
      }

      .cls-3 {
        fill: #666;
      }
    </style>
  </defs>
  <g id="Layer_1-2" data-name="Layer 1">
    <g>
      <circle class="cls-1" cx="101.5" cy="101.5" r="101.5"/>
      <g id="Layer_2-2" data-name="Layer 2">
        <g id="Layer_1-2" data-name="Layer 1-2">
          <path class="cls-3" d="M44.25,97.07l24.89,24.89h0l-17.21,17.21c-4.23,4.23-11.09,4.22-15.32-.01,0,0-.01-.01-.02-.02l-9.55-9.55c-4.23-4.23-4.23-11.08,0-15.31l17.21-17.21h0Z"/>
          <path class="cls-3" d="M109.03,47.61l9.55,9.55c4.23,4.23,4.23,11.09,0,15.32,0,0,0,0,0,0l-17.2,17.2h0l-24.86-24.86h0l17.2-17.2c4.23-4.23,11.08-4.24,15.32-.01,0,0,0,0,0,0Z"/>
          <path class="cls-3" d="M80.58,76.04l46.15,46.15h0l-17.23,17.23c-4.23,4.21-11.07,4.2-15.29-.02l-46.15-46.15h0l17.2-17.2c4.23-4.23,11.08-4.24,15.32-.01,0,0,0,0,0,0Z"/>
          <path class="cls-2" d="M137.47,76.04l38.48,38.48c4.23,4.23,4.23,11.09,0,15.32h0l-9.57,9.57c-4.23,4.21-11.07,4.2-15.29-.02l-46.15-46.15h0l17.2-17.2c4.23-4.23,11.08-4.24,15.32-.01,0,0,0,0,.01,.01Z"/>
        </g>
      </g>
    </g>
  </g>
</svg>