<?xml version="1.0" encoding="UTF-8"?>
<svg id="Layer_2" data-name="Layer 2" xmlns="http://www.w3.org/2000/svg" xmlns:xlink="http://www.w3.org/1999/xlink" viewBox="0 0 204.47 204.47">
  <defs>
    <style>
      .cls-1 {
        fill: url(#linear-gradient-2);
      }

      .cls-2 {
        fill: #fff;
      }

      .cls-3 {
        fill: url(#linear-gradient);
      }
    </style>
    <linearGradient id="linear-gradient" x1="69.74" y1="-377.08" x2="129.98" y2="-439.76" gradientTransform="translate(0 -291.09) scale(1 -1)" gradientUnits="userSpaceOnUse">
      <stop offset="0" stop-color="#8cc63f"/>
      <stop offset=".37" stop-color="#4fa176"/>
      <stop offset=".81" stop-color="#0071bc"/>
    </linearGradient>
    <linearGradient id="linear-gradient-2" x1="85.22" y1="-362.21" x2="145.49" y2="-424.92" xlink:href="#linear-gradient"/>
  </defs>
  <g id="Layer_1-2" data-name="Layer 1">
    <g>
      <circle class="cls-2" cx="102.23" cy="102.23" r="102.23"/>
      <g id="Layer_2-2" data-name="Layer 2">
        <g id="Layer_1-2" data-name="Layer 1-2">
          <path class="cls-3" d="M89.33,85.59l7.82,7.82c2.76,2.76,7.23,2.76,9.99,0,0,0,0,0,0,0l12.82-12.82,12.79-12.82c2.76-2.76,2.76-7.23,0-9.99,0,0,0,0,0,0l-7.8-7.82c-2.76-2.76-7.23-2.76-9.99,0,0,0,0,0,0,0l-7.84,7.82c-2.76,2.76-7.23,2.76-9.99,0,0,0,0,0,0,0l-7.8-7.82c-2.76-2.76-7.23-2.76-9.99,0,0,0,0,0,0,0l-12.84,12.82-17.81,17.81-17.81,17.81-15.23,15.07c-2.76,2.76-2.76,7.23,0,9.99,0,0,0,0,0,0l7.82,7.79c2.76,2.76,7.23,2.76,9.99,0,0,0,0,0,0,0l15.22-15.04,17.81-17.81,12.82-12.82c2.75-2.77,7.22-2.78,9.99-.03,.01,.01,.02,.02,.03,.03Z"/>
          <polygon class="cls-1" points="182.27 107.32 164.46 89.5 146.65 71.69 128.84 89.5 101.85 116.49 84.04 98.68 66.23 116.49 84.04 134.3 101.85 152.11 119.66 134.3 146.65 107.32 164.46 125.12 173.08 133.74 190.89 115.94 182.27 107.32"/>
        </g>
      </g>
    </g>
  </g>
</svg>