<?xml version="1.0" encoding="UTF-8"?>
<svg id="Layer_2" data-name="Layer 2" xmlns="http://www.w3.org/2000/svg" viewBox="0 0 171.24 171.68">
  <g id="Layer_1-2" data-name="Layer 1">
    <path d="M127.87,171.68c-5.79,.03-12.79-2.13-19.72-4.67-10.02-3.68-20.16-7.06-29.38-12.61-15.36-9.25-28.48-21.15-40.62-34.22-8.07-8.69-15.4-17.95-21.35-28.23-6.25-10.8-9.99-22.64-14.05-34.34C.92,52.35-.04,46.91,0,41.35c.06-8.11,2.44-15.62,6.32-22.68,.88-1.61,1.91-3.15,2.83-4.74C13.28,6.8,19.4,2.59,27.54,1.3c2.3-.36,4.59-.79,6.89-1.16,3.08-.5,5.61,.32,7.22,3.18,3.19,5.68,6.41,11.34,9.55,17.05,2.8,5.09,5.72,10.1,8.97,14.92,3.55,5.27,3.2,7.91-1.14,12.61-3.87,4.19-8.63,7.32-12.88,11.05-6.41,5.63-6.73,7.6-2.41,15.01,5.32,9.13,10.87,18.07,17.89,26.04,8.76,9.93,19.02,17.95,30.4,24.6,3.11,1.82,6.25,3.59,9.41,5.33,3.12,1.72,5.78,.97,8.22-1.49,2.3-2.32,4.52-4.69,6.47-7.3,2.55-3.41,5.34-6.61,8.51-9.46,3.6-3.24,6.09-3.73,10.12-1.06,10.05,6.64,20.77,12.1,31.22,18.05,5.77,3.29,5.59,4.03,4.97,10.76-.2,2.17-.91,4.29-1.3,6.44-1.27,6.89-5.04,11.95-10.83,15.8-8.9,5.92-18.33,10.04-30.93,10.02Z"/>
  </g>
</svg>