<?xml version="1.0" encoding="UTF-8"?>
<svg id="Layer_2" data-name="Layer 2" xmlns="http://www.w3.org/2000/svg" xmlns:xlink="http://www.w3.org/1999/xlink" viewBox="0 0 177.31 104.21">
  <defs>
    <style>
      .cls-1 {
        fill: url(#linear-gradient-2);
      }

      .cls-2 {
        fill: url(#linear-gradient);
      }
    </style>
    <linearGradient id="linear-gradient" x1="56.16" y1="-856.98" x2="116.4" y2="-919.66" gradientTransform="translate(0 -818.9) scale(1 -1)" gradientUnits="userSpaceOnUse">
      <stop offset="0" stop-color="#8cc63f"/>
      <stop offset=".37" stop-color="#4fa176"/>
      <stop offset=".81" stop-color="#0071bc"/>
    </linearGradient>
    <linearGradient id="linear-gradient-2" x1="71.64" y1="-842.11" x2="131.91" y2="-904.82" xlink:href="#linear-gradient"/>
  </defs>
  <g id="Layer_1-2" data-name="Layer 1">
    <g id="Layer_2-2" data-name="Layer 2">
      <g id="Layer_1-2" data-name="Layer 1-2">
        <path class="cls-2" d="M75.75,37.69l7.82,7.82c2.76,2.76,7.23,2.76,9.99,0,0,0,0,0,0,0l12.82-12.82,12.79-12.82c2.76-2.76,2.76-7.23,0-9.99,0,0,0,0,0,0l-7.8-7.82c-2.76-2.76-7.23-2.76-9.99,0,0,0,0,0,0,0l-7.84,7.82c-2.76,2.76-7.23,2.76-9.99,0,0,0,0,0,0,0l-7.8-7.82c-2.76-2.76-7.23-2.76-9.99,0,0,0,0,0,0,0l-12.84,12.82-17.81,17.81-17.81,17.81-15.23,15.07c-2.76,2.76-2.76,7.23,0,9.99,0,0,0,0,0,0l7.82,7.79c2.76,2.76,7.23,2.76,9.99,0,0,0,0,0,0,0l15.22-15.04,17.81-17.81,12.82-12.82c2.75-2.77,7.22-2.78,9.99-.03,.01,.01,.02,.02,.03,.03Z"/>
        <polygon class="cls-1" points="168.69 59.41 150.88 41.6 133.07 23.79 115.26 41.6 88.27 68.59 70.46 50.78 52.65 68.59 70.46 86.4 88.27 104.21 106.08 86.4 133.07 59.41 150.88 77.22 159.5 85.84 177.31 68.04 168.69 59.41"/>
      </g>
    </g>
  </g>
</svg>